<svg width="222" height="41" viewBox="0 0 222 41" fill="none" xmlns="http://www.w3.org/2000/svg">
<path fill-rule="evenodd" clip-rule="evenodd" d="M1.62591 2.21516C0.995912 1.50691 1.49905 0.387329 2.44732 0.387329H62.8586C68.1507 0.387329 72.4409 4.67428 72.4409 9.96251V31.4109C72.4409 36.699 68.1507 40.9861 62.8586 40.9861H33.1847C31.8244 40.9861 30.529 40.4048 29.6253 39.3889L26.5394 35.9198C25.9095 35.2116 26.4126 34.092 27.3608 34.092H62.8586C64.3404 34.092 65.5417 32.8916 65.5417 31.4109V9.96251C65.5417 8.48182 64.3404 7.28148 62.8586 7.28148H8.27119C6.91087 7.28148 5.6155 6.70015 4.71175 5.6842L1.62591 2.21516Z" fill="#4ED8F3"/>
<path fill-rule="evenodd" clip-rule="evenodd" d="M27.7992 0.112793L45.4671 19.3057C45.9196 19.7974 46.6951 19.801 47.1523 19.3135L62.6996 2.73326L67.7338 7.44714L52.1869 24.0273C48.9865 27.4402 43.5582 27.4153 40.3893 23.9731L22.7216 4.78017L27.7992 0.112793Z" fill="#4ED8F3"/>
<path fill-rule="evenodd" clip-rule="evenodd" d="M15.0576 19.8369C14.4232 19.1297 14.9255 18.0057 15.876 18.0057H26.9147C27.9263 18.0057 28.7464 18.8252 28.7464 19.8361V23.0695C28.7464 24.0804 27.9263 24.8998 26.9147 24.8998H20.9078C20.0749 24.8998 19.2814 24.5457 18.7254 23.926L15.0576 19.8369Z" fill="#4ED8F3"/>
<path d="M84.517 12.5455H89.0682L93.875 24.2727H94.0795L98.8864 12.5455H103.438V30H99.858V18.6392H99.7131L95.196 29.9148H92.7585L88.2415 18.5966H88.0966V30H84.517V12.5455ZM110.143 30.2472C109.308 30.2472 108.563 30.1023 107.91 29.8125C107.256 29.517 106.739 29.0824 106.359 28.5085C105.984 27.929 105.796 27.2074 105.796 26.3438C105.796 25.6165 105.93 25.0057 106.197 24.5114C106.464 24.017 106.827 23.6193 107.288 23.3182C107.748 23.017 108.271 22.7898 108.856 22.6364C109.447 22.483 110.066 22.375 110.714 22.3125C111.475 22.233 112.089 22.1591 112.555 22.0909C113.021 22.017 113.359 21.9091 113.569 21.767C113.779 21.625 113.884 21.4148 113.884 21.1364V21.0852C113.884 20.5455 113.714 20.1278 113.373 19.8324C113.038 19.5369 112.56 19.3892 111.941 19.3892C111.288 19.3892 110.768 19.5341 110.381 19.8239C109.995 20.108 109.739 20.4659 109.614 20.8977L106.256 20.625C106.427 19.8295 106.762 19.142 107.262 18.5625C107.762 17.9773 108.407 17.5284 109.197 17.2159C109.992 16.8977 110.913 16.7386 111.958 16.7386C112.685 16.7386 113.381 16.8239 114.046 16.9943C114.717 17.1648 115.31 17.429 115.827 17.7869C116.35 18.1449 116.762 18.6051 117.063 19.1676C117.364 19.7244 117.515 20.392 117.515 21.1705V30H114.072V28.1847H113.969C113.759 28.5938 113.478 28.9545 113.126 29.267C112.773 29.5739 112.35 29.8153 111.856 29.9915C111.362 30.1619 110.79 30.2472 110.143 30.2472ZM111.183 27.7415C111.717 27.7415 112.188 27.6364 112.597 27.4261C113.006 27.2102 113.327 26.9205 113.56 26.5568C113.793 26.1932 113.91 25.7812 113.91 25.321V23.9318C113.796 24.0057 113.64 24.0739 113.441 24.1364C113.248 24.1932 113.029 24.2472 112.785 24.2983C112.54 24.3437 112.296 24.3864 112.052 24.4261C111.808 24.4602 111.586 24.4915 111.387 24.5199C110.961 24.5824 110.589 24.6818 110.271 24.8182C109.952 24.9545 109.705 25.1392 109.529 25.3722C109.353 25.5994 109.265 25.8835 109.265 26.2244C109.265 26.7188 109.444 27.0966 109.802 27.358C110.165 27.6136 110.626 27.7415 111.183 27.7415ZM120.332 30V16.9091H123.962V30H120.332ZM122.156 15.2216C121.616 15.2216 121.153 15.0426 120.766 14.6847C120.386 14.321 120.195 13.8864 120.195 13.3807C120.195 12.8807 120.386 12.4517 120.766 12.0938C121.153 11.7301 121.616 11.5483 122.156 11.5483C122.695 11.5483 123.156 11.7301 123.536 12.0938C123.923 12.4517 124.116 12.8807 124.116 13.3807C124.116 13.8864 123.923 14.321 123.536 14.6847C123.156 15.0426 122.695 15.2216 122.156 15.2216ZM130.501 12.5455V30H126.871V12.5455H130.501ZM133.478 12.5455H138.029L142.836 24.2727H143.04L147.847 12.5455H152.398V30H148.819V18.6392H148.674L144.157 29.9148H141.719L137.202 18.5966H137.058V30H133.478V12.5455ZM159.104 30.2472C158.268 30.2472 157.524 30.1023 156.871 29.8125C156.217 29.517 155.7 29.0824 155.32 28.5085C154.945 27.929 154.757 27.2074 154.757 26.3438C154.757 25.6165 154.891 25.0057 155.158 24.5114C155.425 24.017 155.788 23.6193 156.249 23.3182C156.709 23.017 157.232 22.7898 157.817 22.6364C158.408 22.483 159.027 22.375 159.675 22.3125C160.436 22.233 161.05 22.1591 161.516 22.0909C161.982 22.017 162.32 21.9091 162.53 21.767C162.74 21.625 162.845 21.4148 162.845 21.1364V21.0852C162.845 20.5455 162.675 20.1278 162.334 19.8324C161.999 19.5369 161.521 19.3892 160.902 19.3892C160.249 19.3892 159.729 19.5341 159.342 19.8239C158.956 20.108 158.7 20.4659 158.575 20.8977L155.217 20.625C155.388 19.8295 155.723 19.142 156.223 18.5625C156.723 17.9773 157.368 17.5284 158.158 17.2159C158.953 16.8977 159.874 16.7386 160.919 16.7386C161.646 16.7386 162.342 16.8239 163.007 16.9943C163.678 17.1648 164.271 17.429 164.788 17.7869C165.311 18.1449 165.723 18.6051 166.024 19.1676C166.325 19.7244 166.476 20.392 166.476 21.1705V30H163.033V28.1847H162.93C162.72 28.5938 162.439 28.9545 162.087 29.267C161.734 29.5739 161.311 29.8153 160.817 29.9915C160.322 30.1619 159.751 30.2472 159.104 30.2472ZM160.143 27.7415C160.678 27.7415 161.149 27.6364 161.558 27.4261C161.967 27.2102 162.288 26.9205 162.521 26.5568C162.754 26.1932 162.871 25.7812 162.871 25.321V23.9318C162.757 24.0057 162.601 24.0739 162.402 24.1364C162.209 24.1932 161.99 24.2472 161.746 24.2983C161.501 24.3437 161.257 24.3864 161.013 24.4261C160.768 24.4602 160.547 24.4915 160.348 24.5199C159.922 24.5824 159.55 24.6818 159.232 24.8182C158.913 24.9545 158.666 25.1392 158.49 25.3722C158.314 25.5994 158.226 25.8835 158.226 26.2244C158.226 26.7188 158.405 27.0966 158.763 27.358C159.126 27.6136 159.587 27.7415 160.143 27.7415ZM175.19 35.1818C174.014 35.1818 173.006 35.0199 172.165 34.696C171.33 34.3778 170.665 33.9432 170.17 33.392C169.676 32.8409 169.355 32.2216 169.207 31.5341L172.565 31.0824C172.668 31.3438 172.83 31.5881 173.051 31.8153C173.273 32.0426 173.565 32.2244 173.929 32.3608C174.298 32.5028 174.747 32.5739 175.276 32.5739C176.065 32.5739 176.716 32.3807 177.227 31.9943C177.744 31.6136 178.003 30.9744 178.003 30.0767V27.6818H177.849C177.69 28.0455 177.452 28.3892 177.134 28.7131C176.815 29.0369 176.406 29.3011 175.906 29.5057C175.406 29.7102 174.81 29.8125 174.116 29.8125C173.134 29.8125 172.239 29.5852 171.432 29.1307C170.631 28.6705 169.991 27.9687 169.514 27.0256C169.043 26.0767 168.807 24.8778 168.807 23.429C168.807 21.946 169.048 20.7074 169.531 19.7131C170.014 18.7187 170.656 17.9744 171.457 17.4801C172.264 16.9858 173.148 16.7386 174.108 16.7386C174.841 16.7386 175.455 16.8636 175.949 17.1136C176.443 17.358 176.841 17.6648 177.142 18.0341C177.449 18.3977 177.685 18.7557 177.849 19.108H177.986V16.9091H181.591V30.1278C181.591 31.2415 181.318 32.1733 180.773 32.9233C180.227 33.6733 179.472 34.2358 178.506 34.6108C177.545 34.9915 176.44 35.1818 175.19 35.1818ZM175.267 27.0852C175.852 27.0852 176.347 26.9403 176.75 26.6506C177.159 26.3551 177.472 25.9347 177.688 25.3892C177.909 24.8381 178.02 24.179 178.02 23.4119C178.02 22.6449 177.912 21.9801 177.696 21.4176C177.48 20.8494 177.168 20.4091 176.759 20.0966C176.349 19.7841 175.852 19.6278 175.267 19.6278C174.67 19.6278 174.168 19.7898 173.759 20.1136C173.349 20.4318 173.04 20.875 172.83 21.4432C172.619 22.0114 172.514 22.6676 172.514 23.4119C172.514 24.1676 172.619 24.821 172.83 25.3722C173.045 25.9176 173.355 26.3409 173.759 26.642C174.168 26.9375 174.67 27.0852 175.267 27.0852ZM188.111 22.4318V30H184.48V16.9091H187.94V19.2188H188.094C188.384 18.4574 188.869 17.8551 189.551 17.4119C190.233 16.9631 191.06 16.7386 192.031 16.7386C192.94 16.7386 193.733 16.9375 194.409 17.3352C195.085 17.733 195.611 18.3011 195.986 19.0398C196.361 19.7727 196.548 20.6477 196.548 21.6648V30H192.918V22.3125C192.923 21.5114 192.719 20.8864 192.304 20.4375C191.889 19.983 191.318 19.7557 190.591 19.7557C190.102 19.7557 189.67 19.8608 189.295 20.071C188.926 20.2812 188.636 20.5881 188.426 20.9915C188.222 21.3892 188.116 21.8693 188.111 22.4318ZM205.376 30.2557C204.029 30.2557 202.87 29.983 201.898 29.4375C200.933 28.8864 200.188 28.108 199.665 27.1023C199.143 26.0909 198.881 24.8949 198.881 23.5142C198.881 22.1676 199.143 20.9858 199.665 19.9688C200.188 18.9517 200.924 18.1591 201.873 17.5909C202.827 17.0227 203.947 16.7386 205.231 16.7386C206.094 16.7386 206.898 16.8778 207.643 17.1562C208.393 17.429 209.046 17.8409 209.603 18.392C210.165 18.9432 210.603 19.6364 210.915 20.4716C211.228 21.3011 211.384 22.2727 211.384 23.3864V24.3835H200.33V22.1335H207.967C207.967 21.6108 207.853 21.1477 207.626 20.7443C207.398 20.3409 207.083 20.0256 206.68 19.7983C206.282 19.5653 205.819 19.4489 205.29 19.4489C204.739 19.4489 204.251 19.5767 203.825 19.8324C203.404 20.0824 203.075 20.4205 202.836 20.8466C202.597 21.267 202.475 21.7358 202.469 22.2528V24.392C202.469 25.0398 202.589 25.5994 202.827 26.071C203.072 26.5426 203.415 26.9062 203.859 27.1619C204.302 27.4176 204.827 27.5455 205.435 27.5455C205.839 27.5455 206.208 27.4886 206.543 27.375C206.879 27.2614 207.165 27.0909 207.404 26.8636C207.643 26.6364 207.825 26.358 207.95 26.0284L211.308 26.25C211.137 27.0568 210.788 27.7614 210.259 28.3636C209.737 28.9602 209.06 29.4261 208.231 29.7614C207.407 30.0909 206.455 30.2557 205.376 30.2557ZM220.717 16.9091V19.6364H212.833V16.9091H220.717ZM214.623 13.7727H218.254V25.9773C218.254 26.3125 218.305 26.5739 218.407 26.7614C218.509 26.9432 218.651 27.071 218.833 27.1449C219.021 27.2187 219.237 27.2557 219.481 27.2557C219.651 27.2557 219.822 27.2415 219.992 27.2131C220.163 27.179 220.293 27.1534 220.384 27.1364L220.955 29.8381C220.773 29.8949 220.518 29.9602 220.188 30.0341C219.859 30.1136 219.458 30.1619 218.987 30.179C218.112 30.2131 217.344 30.0966 216.685 29.8295C216.032 29.5625 215.523 29.1477 215.16 28.5852C214.796 28.0227 214.617 27.3125 214.623 26.4545V13.7727Z" fill="black"/>
</svg>
